# xmcd
#
# Track frame offsets:
#	150
#	12435
#	26785
#	42165
#	52005
#	73837
#	87662
#	108535
#	121190
#	144757
#	162132
#	187702
#	209555
#	234485
#
# Disc length: 3322 seconds
#
# Revision: 1
# Processed by: cddbd v1.5.2PL0 Copyright (c) Steve Scherf et al.
# Submitted via: EZCDAudioConverter 7.0.6.1
#
DISCID=c00cf80e
DTITLE=Sun Ra and His Solar Arkestra - We Travel The Spaceways/Bad and Beautiful
DYEAR=1900
DGENRE=
TTITLE0=Interplanetary Music
TTITLE1=Eve
TTITLE2=We Travel The Spaceways
TTITLE3=Tapestry From An Asteroid
TTITLE4=Space Loneliness
TTITLE5=New Horizons
TTITLE6=Velvet
TTITLE7=The Bad And The Beautiful
TTITLE8=Ankh
TTITLE9=Just In Time
TTITLE10=Search Light Blues
TTITLE11=Exotic Two
TTITLE12=On The Blue Side
TTITLE13=And This My Beloved
EXTD=
EXTT0=
EXTT1=
EXTT2=
EXTT3=
EXTT4=
EXTT5=
EXTT6=
EXTT7=
EXTT8=
EXTT9=
EXTT10=
EXTT11=
EXTT12=
EXTT13=
PLAYORDER=
